<svg xmlns="http://www.w3.org/2000/svg" width="256" height="256"><path fill="#1976D2" fill-opacity=".016" fill-rule="evenodd" d="M0 128.004v128.004l128.25-.254 128.25-.254.254-127.75L257.008 0H0zm.485.496c0 70.4.119 99.053.265 63.672s.146-92.98 0-128S.485 58.1.485 128.5"/><path fill="#1976D2" fill-opacity=".159" fill-rule="evenodd" d="M114.955 21.029C79.644 25.975 48.274 48.606 32.522 80.5 8.53 129.073 24.573 187.913 69.961 217.814c36.398 23.978 82.268 23.849 118.614-.335 9.705-6.458 21.225-17.537 27.769-26.709 12.827-17.975 20.638-42.102 16.329-50.435-2.617-5.06-8.019-9.045-14.11-10.408-4.997-1.119-7.62-2.927-4.245-2.927.726 0 3.644-.69 6.486-1.534 6.691-1.987 11.642-6.988 13.152-13.284.985-4.106.809-5.791-1.43-13.682-12.691-44.725-52.92-76.252-99.481-77.963-6.35-.234-14.49-.012-18.09.492m1.545 36.049c-7.215 1.219-15.828 4.378-23.4 8.582-7.949 4.413-21.2 17.452-25.921 25.505-7.75 13.223-11.371 30.646-9.412 45.287 2.33 17.417 8.317 29.583 20.733 42.136 8.922 9.02 17.317 14.235 29.333 18.22 6.693 2.22 9.383 2.543 21.167 2.543s14.474-.323 21.167-2.543c10.795-3.58 19.887-8.951 27.814-16.429 6.433-6.069 15.895-18.837 14.783-19.949-.281-.28-13.73-3.851-29.887-7.935-16.158-4.083-30.795-8.087-32.528-8.896-9.541-4.457-12.409-18.905-5.349-26.946 1.596-1.818 4.611-4.05 6.701-4.96s16.616-4.843 32.28-8.739 28.657-7.259 28.872-7.473c.625-.626-4.44-8.796-8.421-13.583-13.249-15.932-35.213-26.109-55.64-25.781-4.011.064-9.542.497-12.292.961"/><path fill="#1976D2" fill-opacity=".327" fill-rule="evenodd" d="M111.919 21.948C87.943 26.335 69.48 36.104 52.5 53.39c-15.523 15.802-24.028 31.801-28.541 53.687-2.956 14.343-2.386 33.871 1.412 48.352 9.635 36.73 38.635 65.858 75.823 76.157 13.722 3.8 34.365 4.427 48.638 1.478 33.395-6.901 60.725-28.183 75.337-58.664 2.663-5.556 5.803-13.881 6.978-18.5 1.829-7.193 1.966-9.012.954-12.657-1.826-6.576-6.653-10.707-15.036-12.866-3.886-1.001-7.065-2.066-7.065-2.366s3.007-1.335 6.682-2.299c8.404-2.204 12.653-5.404 14.865-11.195 1.989-5.209 1.63-9.651-1.578-19.517-11.191-34.411-38.916-60.802-74.163-70.594-7.725-2.146-11.939-2.645-24.806-2.941-8.525-.195-17.561.022-20.081.483m-1.246 36.013C78.802 66.553 57 95.002 57 128c0 31.426 19.023 57.982 49.19 68.668 9.663 3.422 28.732 4.361 39.129 1.926 8.875-2.079 19.629-7.147 27.371-12.901 9.758-7.252 23.417-25.01 20.127-26.168-.724-.255-13.242-3.419-27.817-7.031s-28.617-7.255-31.203-8.096c-8.134-2.642-13.757-11.418-12.312-19.213.872-4.704 3.817-9.498 7.197-11.712 1.455-.954 16.559-5.237 33.564-9.519s31.157-8.024 31.449-8.316c.292-.291-1.562-3.678-4.12-7.525-9.618-14.467-25.634-25.908-42.198-30.145-10.17-2.601-27.071-2.604-36.704-.007"/><path fill="#1976D2" fill-opacity=".197" fill-rule="evenodd" d="M114.5 22.142C93.257 24.84 72.665 34.671 55.265 50.42 43.393 61.166 30.69 82.307 26.074 99c-11.443 41.388 2.777 85.602 36.185 112.511 9.46 7.62 26.397 16.355 37.741 19.466 11.163 3.061 28.827 4.565 38 3.237l7.5-1.086-7.5.288c-4.125.158-6.262.1-4.75-.128l2.75-.415v-30.835l2.75-.606c5.175-1.142 4.737-1.205-4.785-.685-22.433 1.226-42.904-7.162-58.443-23.946-7.393-7.985-14.397-20.94-17.193-31.801-2.222-8.628-2.222-25.372 0-34 2.796-10.861 9.8-23.816 17.193-31.801 15.539-16.784 36.01-25.172 58.443-23.946 9.522.52 9.96.457 4.785-.685l-2.75-.606V23l-3.25-.142c-3.13-.137-3.102-.168.75-.858 6.087-1.09-10.264-.967-19 .142m25.25.564c1.238.238 3.262.238 4.5 0 1.238-.239.225-.434-2.25-.434s-3.488.195-2.25.434m8 .956c.688.278 1.813.278 2.5 0 .688-.277.125-.504-1.25-.504s-1.937.227-1.25.504m-2.937 33.021c.721.289 1.584.253 1.916-.079s-.258-.568-1.312-.525c-1.165.048-1.402.285-.604.604M153 59c.825.533 1.95.969 2.5.969s.325-.436-.5-.969-1.95-.969-2.5-.969-.325.436.5.969m1.813 47.683c.721.289 1.584.253 1.916-.079s-.258-.568-1.312-.525c-1.165.048-1.402.285-.604.604m-4 1c.721.289 1.584.253 1.916-.079s-.258-.568-1.312-.525c-1.165.048-1.402.285-.604.604m-4 1c.721.289 1.584.253 1.916-.079s-.258-.568-1.312-.525c-1.165.048-1.402.285-.604.604m-10.613 2.26c-9.763 2.792-14.2 8.032-14.2 16.773 0 5.793 2.543 10.991 6.8 13.899 2.98 2.036 15.996 5.923 16.878 5.04.237-.236-1.844-.975-4.624-1.642L136 143.801v-30.936l-2.25.573c-4.264 1.085 1.305-1.213 6.75-2.786 2.75-.794 4.325-1.459 3.5-1.477s-4.335.778-7.8 1.768m-3.387 31.74c.721.289 1.584.253 1.916-.079s-.258-.568-1.312-.525c-1.165.048-1.402.285-.604.604m15 5c.721.289 1.584.253 1.916-.079s-.258-.568-1.312-.525c-1.165.048-1.402.285-.604.604m8 2c.721.289 1.584.253 1.916-.079s-.258-.568-1.312-.525c-1.165.048-1.402.285-.604.604m-11 50c.721.289 1.584.253 1.916-.079s-.258-.568-1.312-.525c-1.165.048-1.402.285-.604.604m8 32c.721.289 1.584.253 1.916-.079s-.258-.568-1.312-.525c-1.165.048-1.402.285-.604.604m-5.544 1.01c.973.254 2.323.237 3-.037s-.119-.481-1.769-.461-2.204.244-1.231.498"/></svg>